<mxfile host="Electron" modified="2024-01-30T11:56:45.106Z" agent="Mozilla/5.0 (X11; Linux x86_64) AppleWebKit/537.36 (KHTML, like Gecko) draw.io/23.0.2 Chrome/120.0.6099.109 Electron/28.1.0 Safari/537.36" etag="pI27vj7Ht8KY3-4IuSDf" version="23.0.2" type="device">
  <diagram name="Page-1" id="VeJeptkEUCESyR61zAEP">
    <mxGraphModel dx="1434" dy="838" grid="1" gridSize="10" guides="1" tooltips="1" connect="1" arrows="1" fold="1" page="1" pageScale="1" pageWidth="850" pageHeight="1100" math="0" shadow="0">
      <root>
        <mxCell id="0" />
        <mxCell id="1" parent="0" />
        <mxCell id="C9Fe9vyTbrVO6EhyNHyC-1" value="Overordnet Komunikasjon:&lt;br&gt;Heisene kommuniserer med hverandre P2P. Første som skrur seg på er master, 2. er slave1 og siste er slave2. Dersom Master skrur seg av, vil S1 overta som master og S2 bli til S1. Om master(old) skrur seg på igjen, vil den nå bli S2." style="rounded=1;whiteSpace=wrap;html=1;" vertex="1" parent="1">
          <mxGeometry x="40" y="40" width="180" height="190" as="geometry" />
        </mxCell>
        <mxCell id="C9Fe9vyTbrVO6EhyNHyC-4" style="edgeStyle=orthogonalEdgeStyle;rounded=0;orthogonalLoop=1;jettySize=auto;html=1;exitX=0.25;exitY=1;exitDx=0;exitDy=0;entryX=0.5;entryY=0;entryDx=0;entryDy=0;" edge="1" parent="1" source="C9Fe9vyTbrVO6EhyNHyC-2" target="C9Fe9vyTbrVO6EhyNHyC-3">
          <mxGeometry relative="1" as="geometry" />
        </mxCell>
        <mxCell id="C9Fe9vyTbrVO6EhyNHyC-10" style="edgeStyle=orthogonalEdgeStyle;rounded=0;orthogonalLoop=1;jettySize=auto;html=1;exitX=0.75;exitY=1;exitDx=0;exitDy=0;entryX=0.5;entryY=0;entryDx=0;entryDy=0;" edge="1" parent="1" source="C9Fe9vyTbrVO6EhyNHyC-2" target="C9Fe9vyTbrVO6EhyNHyC-7">
          <mxGeometry relative="1" as="geometry" />
        </mxCell>
        <mxCell id="C9Fe9vyTbrVO6EhyNHyC-2" value="Potential errors" style="rounded=1;whiteSpace=wrap;html=1;fillColor=#f8cecc;strokeColor=#b85450;" vertex="1" parent="1">
          <mxGeometry x="400" y="40" width="240" height="70" as="geometry" />
        </mxCell>
        <mxCell id="C9Fe9vyTbrVO6EhyNHyC-14" style="edgeStyle=orthogonalEdgeStyle;rounded=0;orthogonalLoop=1;jettySize=auto;html=1;exitX=0.5;exitY=1;exitDx=0;exitDy=0;entryX=0.5;entryY=0;entryDx=0;entryDy=0;" edge="1" parent="1" source="C9Fe9vyTbrVO6EhyNHyC-3" target="C9Fe9vyTbrVO6EhyNHyC-13">
          <mxGeometry relative="1" as="geometry" />
        </mxCell>
        <mxCell id="C9Fe9vyTbrVO6EhyNHyC-3" value="Heis skrur seg av" style="rounded=1;whiteSpace=wrap;html=1;" vertex="1" parent="1">
          <mxGeometry x="340" y="200" width="120" height="60" as="geometry" />
        </mxCell>
        <mxCell id="C9Fe9vyTbrVO6EhyNHyC-17" style="edgeStyle=orthogonalEdgeStyle;rounded=0;orthogonalLoop=1;jettySize=auto;html=1;exitX=0.5;exitY=1;exitDx=0;exitDy=0;entryX=1;entryY=0.5;entryDx=0;entryDy=0;" edge="1" parent="1" source="C9Fe9vyTbrVO6EhyNHyC-5" target="C9Fe9vyTbrVO6EhyNHyC-13">
          <mxGeometry relative="1" as="geometry" />
        </mxCell>
        <mxCell id="C9Fe9vyTbrVO6EhyNHyC-5" value="Heis mister internett forbindelse" style="rounded=1;whiteSpace=wrap;html=1;" vertex="1" parent="1">
          <mxGeometry x="480" y="200" width="120" height="60" as="geometry" />
        </mxCell>
        <mxCell id="C9Fe9vyTbrVO6EhyNHyC-6" style="edgeStyle=orthogonalEdgeStyle;rounded=0;orthogonalLoop=1;jettySize=auto;html=1;exitX=0.5;exitY=1;exitDx=0;exitDy=0;entryX=0.575;entryY=-0.05;entryDx=0;entryDy=0;entryPerimeter=0;" edge="1" parent="1" source="C9Fe9vyTbrVO6EhyNHyC-2" target="C9Fe9vyTbrVO6EhyNHyC-5">
          <mxGeometry relative="1" as="geometry" />
        </mxCell>
        <mxCell id="C9Fe9vyTbrVO6EhyNHyC-11" style="edgeStyle=orthogonalEdgeStyle;rounded=0;orthogonalLoop=1;jettySize=auto;html=1;exitX=0.5;exitY=1;exitDx=0;exitDy=0;entryX=0.5;entryY=0;entryDx=0;entryDy=0;" edge="1" parent="1" source="C9Fe9vyTbrVO6EhyNHyC-7" target="C9Fe9vyTbrVO6EhyNHyC-9">
          <mxGeometry relative="1" as="geometry" />
        </mxCell>
        <mxCell id="C9Fe9vyTbrVO6EhyNHyC-7" value="Packet loss" style="rounded=1;whiteSpace=wrap;html=1;" vertex="1" parent="1">
          <mxGeometry x="620" y="200" width="120" height="60" as="geometry" />
        </mxCell>
        <mxCell id="C9Fe9vyTbrVO6EhyNHyC-9" value="TCP burde fikse dette" style="rounded=1;whiteSpace=wrap;html=1;fillColor=#d5e8d4;strokeColor=#82b366;" vertex="1" parent="1">
          <mxGeometry x="620" y="300" width="120" height="60" as="geometry" />
        </mxCell>
        <mxCell id="C9Fe9vyTbrVO6EhyNHyC-16" style="edgeStyle=orthogonalEdgeStyle;rounded=0;orthogonalLoop=1;jettySize=auto;html=1;exitX=0.5;exitY=1;exitDx=0;exitDy=0;entryX=0.5;entryY=0;entryDx=0;entryDy=0;" edge="1" parent="1" source="C9Fe9vyTbrVO6EhyNHyC-13" target="C9Fe9vyTbrVO6EhyNHyC-15">
          <mxGeometry relative="1" as="geometry" />
        </mxCell>
        <mxCell id="C9Fe9vyTbrVO6EhyNHyC-13" value="Den som har lengst oppetid er Master uansett, den med minst oppetid er slave 2" style="rounded=1;whiteSpace=wrap;html=1;fillColor=#d5e8d4;strokeColor=#82b366;" vertex="1" parent="1">
          <mxGeometry x="330" y="310" width="140" height="90" as="geometry" />
        </mxCell>
        <mxCell id="C9Fe9vyTbrVO6EhyNHyC-15" value="når heis går online igjen må den få en &quot;liste&quot; med gjeldende hireaki før den kan gjøre noe" style="rounded=1;whiteSpace=wrap;html=1;fillColor=#d5e8d4;strokeColor=#82b366;" vertex="1" parent="1">
          <mxGeometry x="335" y="460" width="130" height="80" as="geometry" />
        </mxCell>
      </root>
    </mxGraphModel>
  </diagram>
</mxfile>
